<?xml version="1.0" encoding="UTF-8" standalone="no"?>
<svg
   version="1.1"
   id="Layer_1"
   x="0px"
   y="0px"
   width="100%"
   viewBox="0 0 1024 1024"
   enable-background="new 0 0 1024 1024"
   xml:space="preserve"
   xmlns="http://www.w3.org/2000/svg"
   xmlns:svg="http://www.w3.org/2000/svg"><defs
   id="defs2" />


<g
   id="layer1-5"
   transform="matrix(31.282257,0,0,31.282257,-1026.8203,-4353.6379)"
   style="display:none"><circle
     cx="49.212509"
     cy="155.575"
     r="15.743801"
     id="circle2892"
     style="display:inline;opacity:0.2;fill:none;fill-opacity:1;stroke:currentColor;stroke-width:0.261937;stroke-linecap:butt;stroke-linejoin:miter;stroke-miterlimit:4;stroke-dasharray:none;stroke-dashoffset:0;stroke-opacity:1;marker:none;marker-start:none;marker-mid:none;marker-end:none;paint-order:normal;enable-background:new" /><rect
     ry="2.096508"
     rx="2.096508"
     y="141.94769"
     x="35.585205"
     height="27.254602"
     width="27.254602"
     id="rect2896"
     style="display:inline;opacity:0.2;fill:none;fill-opacity:1;stroke:currentColor;stroke-width:0.261937;stroke-linecap:butt;stroke-linejoin:miter;stroke-miterlimit:4;stroke-dasharray:none;stroke-dashoffset:0;stroke-opacity:1;marker:none;marker-start:none;marker-mid:none;marker-end:none;paint-order:normal;enable-background:new" /></g><g
   id="layer4"
   transform="matrix(1.7463852,0,0,1.7463852,-355.97074,-336.28344)"><path
     style="fill:#ffffff;fill-opacity:1;stroke:#000000;stroke-width:0.881998;stroke-dasharray:none;stroke-opacity:1"
     d="m 447.10405,360.93681 c -9.2705,-6.2474 -9.2705,-17.08359 0,-23.33098 8.0876,-5.45024 19.47304,1.0954 19.47304,11.1953 0,5.33669 -2.25036,9.42495 -6.58675,11.96625 -4.64516,2.72224 -9.01295,2.77967 -12.88629,0.16943 z"
     id="path4" /><path
     style="fill:#ffffff;fill-opacity:1;stroke:#000000;stroke-width:1;stroke-dasharray:none;stroke-opacity:1"
     d="m 554.52741,702.40876 c -38.6793,-3.72719 -72.86515,-20.04264 -101.94761,-48.65524 -23.87826,-23.49249 -38.82927,-51.62414 -46.64047,-87.7582 -5.9979,-42.96637 -2.42512,-89.76447 -2.42512,-133.52727 V 310.15918 c -1.81045,-2.80581 -4.09975,-5.00619 -7.25486,-6.2486 -3.09281,-1.09319 -4.00771,-1.09311 -6.88135,6e-4 -1.82285,0.69379 -4.15071,2.38145 -5.17301,3.75037 -1.83557,2.45792 -1.86423,3.21637 -2.29974,60.85728 l -0.441,58.36834 -6.17398,0.27765 c -12.18151,0.54782 -26.99434,-2.90685 -36.99311,-8.62756 -7.1658,-4.09986 -7.42682,-4.79785 -2.48281,-6.63924 14.86745,-5.53736 26.19336,-18.19215 27.38547,-30.5986 0.49189,-5.11923 -1.24055,-8.23458 -5.58979,-10.05182 -6.81804,-2.84876 -12.07704,-0.55227 -15.57849,6.80277 -2.99009,6.28087 -5.89321,9.23727 -11.66617,11.88021 -7.6354,3.49561 -22.89762,5.17268 -27.01595,2.96862 -2.13251,-1.14128 -2.24431,-5.88505 -0.40461,-17.16793 4.22745,-25.92695 16.15317,-47.83803 37.94752,-69.72081 15.51375,-15.57669 29.98194,-24.50616 50.69032,-31.28505 14.79341,-4.84261 25.33025,-6.50834 41.03751,-6.48746 21.3601,0.0284 37.55008,3.87556 57.32988,13.62309 38.79763,19.11955 65.81591,55.16255 73.23281,97.69423 0.70743,4.05664 1.67696,15.2171 2.15452,24.80103 0.49651,9.96413 1.60672,21.23454 2.59285,26.32162 3.82346,19.72382 6.40854,25.50594 47.17068,105.50795 62.68937,123.03758 77.26775,151.88523 77.26775,152.8971 0,1.27312 -1.21934,1.60761 -13.67098,3.75036 -42.30173,7.27952 -83.02207,-1.62601 -119.70507,-26.17945 -25.18822,-16.85952 -44.17129,-38.23046 -57.0702,-64.24906 -12.86946,-25.95919 -18.2838,-52.22605 -16.6677,-80.86067 1.09809,-19.45627 5.75779,-36.30441 15.77729,-57.04616 6.40942,-13.2684 7.3761,-17.58926 4.9238,-22.00849 -3.0858,-5.56083 -10.81505,-7.11562 -15.55329,-3.12865 -5.41678,4.55791 -16.9077,30.36367 -21.54478,48.3842 -10.76348,41.82891 -6.34355,84.36109 12.77922,122.97197 19.13703,38.63969 46.63141,66.54696 84.08933,85.35209 8.27186,4.15274 11.04885,5.93451 10.14298,6.50792 -1.48272,0.93856 -10.60175,0.86667 -21.34184,-0.16827 z M 460.53009,383.71957 c 18.47668,-3.91623 29.06729,-18.51449 27.91184,-38.47415 -0.50306,-8.69027 -3.61213,-15.15795 -10.16584,-21.14767 -13.17538,-12.04155 -29.78766,-13.7053 -44.15103,-4.4218 -6.30023,4.07204 -9.41173,7.70965 -12.86678,15.0424 -9.47148,20.10158 3.33081,44.99108 25.39157,49.36485 5.34752,1.0602 7.41861,1.00594 13.88024,-0.36363 z"
     id="path3" /></g></svg>
